<mxfile host="app.diagrams.net" modified="2021-02-10T15:50:49.927Z" agent="5.0 (Windows NT 10.0; Win64; x64) AppleWebKit/537.36 (KHTML, like Gecko) Chrome/88.0.4324.146 Safari/537.36" etag="xgFKusNjbMFDqu9DdY_n" version="14.3.0" type="github">
  <diagram id="jetlYUwM8xzZm3v-0a-f" name="Page-1">
    <mxGraphModel dx="1718" dy="482" grid="1" gridSize="10" guides="1" tooltips="1" connect="1" arrows="1" fold="1" page="1" pageScale="1" pageWidth="850" pageHeight="1100" math="0" shadow="0">
      <root>
        <mxCell id="0" />
        <mxCell id="1" parent="0" />
        <mxCell id="9tz1jNqClA59w6YrsnFZ-1" value="Salons/Stylists Submit Request" style="ellipse;whiteSpace=wrap;html=1;" parent="1" vertex="1">
          <mxGeometry x="310" y="10" width="120" height="50" as="geometry" />
        </mxCell>
        <mxCell id="9tz1jNqClA59w6YrsnFZ-5" value="Receives Order" style="rounded=0;whiteSpace=wrap;html=1;" parent="1" vertex="1">
          <mxGeometry x="310" y="100" width="120" height="40" as="geometry" />
        </mxCell>
        <mxCell id="9tz1jNqClA59w6YrsnFZ-6" value="Sales Ambassador Contacts Warehouse/Distributor" style="rounded=0;whiteSpace=wrap;html=1;" parent="1" vertex="1">
          <mxGeometry x="500" y="220" width="130" height="50" as="geometry" />
        </mxCell>
        <mxCell id="9tz1jNqClA59w6YrsnFZ-14" value="" style="endArrow=none;html=1;entryX=0.014;entryY=0.383;entryDx=0;entryDy=0;entryPerimeter=0;" parent="1" edge="1" target="gg68wfgk_ePBJ8B2NXHD-7">
          <mxGeometry width="50" height="50" relative="1" as="geometry">
            <mxPoint x="160" y="330" as="sourcePoint" />
            <mxPoint x="245" y="330" as="targetPoint" />
          </mxGeometry>
        </mxCell>
        <mxCell id="9tz1jNqClA59w6YrsnFZ-16" value="Sales Ambassador" style="rounded=0;whiteSpace=wrap;html=1;" parent="1" vertex="1">
          <mxGeometry x="500" y="140" width="140" height="40" as="geometry" />
        </mxCell>
        <mxCell id="9tz1jNqClA59w6YrsnFZ-7" value="Order Meets Requirements?" style="rhombus;whiteSpace=wrap;html=1;" parent="1" vertex="1">
          <mxGeometry x="500" y="410" width="120" height="90" as="geometry" />
        </mxCell>
        <mxCell id="9tz1jNqClA59w6YrsnFZ-22" value="No" style="text;html=1;align=center;verticalAlign=middle;resizable=0;points=[];autosize=1;" parent="1" vertex="1">
          <mxGeometry x="420" y="290" width="30" height="20" as="geometry" />
        </mxCell>
        <mxCell id="9tz1jNqClA59w6YrsnFZ-31" value="Yes" style="ellipse;whiteSpace=wrap;html=1;aspect=fixed;" parent="1" vertex="1">
          <mxGeometry x="690" y="435" width="40" height="40" as="geometry" />
        </mxCell>
        <mxCell id="9tz1jNqClA59w6YrsnFZ-49" value="Out of Stock" style="rounded=0;whiteSpace=wrap;html=1;" parent="1" vertex="1">
          <mxGeometry x="10" y="780" width="120" height="40" as="geometry" />
        </mxCell>
        <mxCell id="9tz1jNqClA59w6YrsnFZ-50" value="Cancels Order" style="rounded=0;whiteSpace=wrap;html=1;" parent="1" vertex="1">
          <mxGeometry x="330" y="520" width="120" height="40" as="geometry" />
        </mxCell>
        <mxCell id="9tz1jNqClA59w6YrsnFZ-56" value="" style="endArrow=classic;startArrow=classic;html=1;" parent="1" edge="1">
          <mxGeometry width="50" height="50" relative="1" as="geometry">
            <mxPoint x="369.5" y="100" as="sourcePoint" />
            <mxPoint x="369.5" y="60" as="targetPoint" />
          </mxGeometry>
        </mxCell>
        <mxCell id="9tz1jNqClA59w6YrsnFZ-67" value="NO" style="ellipse;whiteSpace=wrap;html=1;aspect=fixed;" parent="1" vertex="1">
          <mxGeometry x="560" y="625" width="40" height="40" as="geometry" />
        </mxCell>
        <mxCell id="9tz1jNqClA59w6YrsnFZ-68" value="YES" style="ellipse;whiteSpace=wrap;html=1;aspect=fixed;" parent="1" vertex="1">
          <mxGeometry x="690" y="735" width="40" height="40" as="geometry" />
        </mxCell>
        <mxCell id="9tz1jNqClA59w6YrsnFZ-72" value="Delivery Man Delivers" style="rounded=0;whiteSpace=wrap;html=1;" parent="1" vertex="1">
          <mxGeometry x="710" y="960" width="120" height="30" as="geometry" />
        </mxCell>
        <mxCell id="9tz1jNqClA59w6YrsnFZ-73" value="Customer Gives Feedback/Product Review" style="rounded=0;whiteSpace=wrap;html=1;" parent="1" vertex="1">
          <mxGeometry x="710" y="1000" width="120" height="40" as="geometry" />
        </mxCell>
        <mxCell id="9tz1jNqClA59w6YrsnFZ-75" value="" style="endArrow=classic;html=1;" parent="1" edge="1">
          <mxGeometry width="50" height="50" relative="1" as="geometry">
            <mxPoint x="460" y="640" as="sourcePoint" />
            <mxPoint x="459.5" y="710" as="targetPoint" />
            <Array as="points">
              <mxPoint x="459.5" y="680" />
            </Array>
          </mxGeometry>
        </mxCell>
        <mxCell id="9tz1jNqClA59w6YrsnFZ-76" value="Warehouse Agent/ Distributor Gives Feedback" style="whiteSpace=wrap;html=1;" parent="1" vertex="1">
          <mxGeometry x="710" y="1050" width="120" height="40" as="geometry" />
        </mxCell>
        <mxCell id="9tz1jNqClA59w6YrsnFZ-79" value="Why Unavailable?" style="rhombus;whiteSpace=wrap;html=1;" parent="1" vertex="1">
          <mxGeometry x="400" y="710" width="120" height="70" as="geometry" />
        </mxCell>
        <mxCell id="9tz1jNqClA59w6YrsnFZ-94" value="Find Alternate Delivery Man" style="rounded=0;whiteSpace=wrap;html=1;" parent="1" vertex="1">
          <mxGeometry x="-10" y="1000" width="120" height="30" as="geometry" />
        </mxCell>
        <mxCell id="gg68wfgk_ePBJ8B2NXHD-1" value="Biker" style="rounded=0;whiteSpace=wrap;html=1;" vertex="1" parent="1">
          <mxGeometry x="100" y="140" width="120" height="40" as="geometry" />
        </mxCell>
        <mxCell id="gg68wfgk_ePBJ8B2NXHD-3" value="" style="endArrow=none;html=1;" edge="1" parent="1">
          <mxGeometry width="50" height="50" relative="1" as="geometry">
            <mxPoint x="160" y="120" as="sourcePoint" />
            <mxPoint x="310" y="119.5" as="targetPoint" />
          </mxGeometry>
        </mxCell>
        <mxCell id="gg68wfgk_ePBJ8B2NXHD-4" value="" style="endArrow=none;html=1;" edge="1" parent="1">
          <mxGeometry width="50" height="50" relative="1" as="geometry">
            <mxPoint x="430" y="119.5" as="sourcePoint" />
            <mxPoint x="560" y="120" as="targetPoint" />
          </mxGeometry>
        </mxCell>
        <mxCell id="gg68wfgk_ePBJ8B2NXHD-6" value="" style="endArrow=classic;html=1;" edge="1" parent="1">
          <mxGeometry width="50" height="50" relative="1" as="geometry">
            <mxPoint x="560.5" y="120" as="sourcePoint" />
            <mxPoint x="560" y="140" as="targetPoint" />
          </mxGeometry>
        </mxCell>
        <mxCell id="gg68wfgk_ePBJ8B2NXHD-39" value="" style="edgeStyle=orthogonalEdgeStyle;rounded=0;orthogonalLoop=1;jettySize=auto;html=1;" edge="1" parent="1" source="gg68wfgk_ePBJ8B2NXHD-7" target="9tz1jNqClA59w6YrsnFZ-7">
          <mxGeometry relative="1" as="geometry" />
        </mxCell>
        <mxCell id="gg68wfgk_ePBJ8B2NXHD-7" value="Warehouse/Distributor&lt;br&gt;Agent Reviews Order Based on Order Requirement&amp;nbsp;" style="rounded=0;whiteSpace=wrap;html=1;" vertex="1" parent="1">
          <mxGeometry x="500" y="310" width="140" height="60" as="geometry" />
        </mxCell>
        <mxCell id="gg68wfgk_ePBJ8B2NXHD-20" value="" style="endArrow=classic;html=1;exitX=1;exitY=0.5;exitDx=0;exitDy=0;" edge="1" parent="1">
          <mxGeometry width="50" height="50" relative="1" as="geometry">
            <mxPoint x="620" y="454.5" as="sourcePoint" />
            <mxPoint x="690" y="454.5" as="targetPoint" />
          </mxGeometry>
        </mxCell>
        <mxCell id="gg68wfgk_ePBJ8B2NXHD-21" value="" style="endArrow=classic;html=1;exitX=0;exitY=0.5;exitDx=0;exitDy=0;" edge="1" parent="1" source="9tz1jNqClA59w6YrsnFZ-7">
          <mxGeometry width="50" height="50" relative="1" as="geometry">
            <mxPoint x="440" y="400" as="sourcePoint" />
            <mxPoint x="410" y="455" as="targetPoint" />
          </mxGeometry>
        </mxCell>
        <mxCell id="gg68wfgk_ePBJ8B2NXHD-22" value="NO" style="ellipse;whiteSpace=wrap;html=1;aspect=fixed;" vertex="1" parent="1">
          <mxGeometry x="370" y="440" width="40" height="40" as="geometry" />
        </mxCell>
        <mxCell id="gg68wfgk_ePBJ8B2NXHD-23" value="" style="endArrow=classic;html=1;exitX=0.5;exitY=1;exitDx=0;exitDy=0;" edge="1" parent="1">
          <mxGeometry width="50" height="50" relative="1" as="geometry">
            <mxPoint x="709.5" y="475" as="sourcePoint" />
            <mxPoint x="709.5" y="520" as="targetPoint" />
          </mxGeometry>
        </mxCell>
        <mxCell id="gg68wfgk_ePBJ8B2NXHD-24" value="Distributor Confirms Stock" style="rounded=0;whiteSpace=wrap;html=1;" vertex="1" parent="1">
          <mxGeometry x="640" y="520" width="120" height="40" as="geometry" />
        </mxCell>
        <mxCell id="gg68wfgk_ePBJ8B2NXHD-25" value="" style="endArrow=classic;html=1;" edge="1" parent="1">
          <mxGeometry width="50" height="50" relative="1" as="geometry">
            <mxPoint x="390" y="480" as="sourcePoint" />
            <mxPoint x="390" y="520" as="targetPoint" />
            <Array as="points">
              <mxPoint x="389.5" y="505" />
            </Array>
          </mxGeometry>
        </mxCell>
        <mxCell id="gg68wfgk_ePBJ8B2NXHD-26" value="Stock Available?" style="rhombus;whiteSpace=wrap;html=1;" vertex="1" parent="1">
          <mxGeometry x="660" y="600" width="100" height="90" as="geometry" />
        </mxCell>
        <mxCell id="gg68wfgk_ePBJ8B2NXHD-27" value="" style="endArrow=classic;startArrow=classic;html=1;" edge="1" parent="1">
          <mxGeometry width="50" height="50" relative="1" as="geometry">
            <mxPoint x="710" y="600" as="sourcePoint" />
            <mxPoint x="710" y="560" as="targetPoint" />
            <Array as="points" />
          </mxGeometry>
        </mxCell>
        <mxCell id="gg68wfgk_ePBJ8B2NXHD-28" value="" style="endArrow=classic;html=1;exitX=0.5;exitY=1;exitDx=0;exitDy=0;" edge="1" parent="1">
          <mxGeometry width="50" height="50" relative="1" as="geometry">
            <mxPoint x="709.5" y="690" as="sourcePoint" />
            <mxPoint x="709.5" y="735" as="targetPoint" />
          </mxGeometry>
        </mxCell>
        <mxCell id="gg68wfgk_ePBJ8B2NXHD-29" value="" style="endArrow=classic;html=1;" edge="1" parent="1" source="gg68wfgk_ePBJ8B2NXHD-26">
          <mxGeometry width="50" height="50" relative="1" as="geometry">
            <mxPoint x="630" y="645" as="sourcePoint" />
            <mxPoint x="600" y="645" as="targetPoint" />
          </mxGeometry>
        </mxCell>
        <mxCell id="gg68wfgk_ePBJ8B2NXHD-30" value="" style="endArrow=none;html=1;" edge="1" parent="1">
          <mxGeometry width="50" height="50" relative="1" as="geometry">
            <mxPoint x="460" y="640.5" as="sourcePoint" />
            <mxPoint x="560" y="640" as="targetPoint" />
          </mxGeometry>
        </mxCell>
        <mxCell id="gg68wfgk_ePBJ8B2NXHD-31" value="Biker Contacts Warehouse/Distributor" style="rounded=0;whiteSpace=wrap;html=1;" vertex="1" parent="1">
          <mxGeometry x="90" y="220" width="130" height="50" as="geometry" />
        </mxCell>
        <mxCell id="gg68wfgk_ePBJ8B2NXHD-33" value="" style="endArrow=classic;html=1;" edge="1" parent="1">
          <mxGeometry width="50" height="50" relative="1" as="geometry">
            <mxPoint x="160.5" y="120" as="sourcePoint" />
            <mxPoint x="160" y="140" as="targetPoint" />
          </mxGeometry>
        </mxCell>
        <mxCell id="gg68wfgk_ePBJ8B2NXHD-34" value="" style="endArrow=classic;html=1;" edge="1" parent="1">
          <mxGeometry width="50" height="50" relative="1" as="geometry">
            <mxPoint x="160" y="270" as="sourcePoint" />
            <mxPoint x="160" y="330" as="targetPoint" />
          </mxGeometry>
        </mxCell>
        <mxCell id="gg68wfgk_ePBJ8B2NXHD-35" value="" style="endArrow=classic;html=1;" edge="1" parent="1">
          <mxGeometry width="50" height="50" relative="1" as="geometry">
            <mxPoint x="559.5" y="270" as="sourcePoint" />
            <mxPoint x="559" y="310" as="targetPoint" />
            <Array as="points">
              <mxPoint x="559.5" y="290" />
            </Array>
          </mxGeometry>
        </mxCell>
        <mxCell id="gg68wfgk_ePBJ8B2NXHD-38" value="" style="endArrow=classic;html=1;" edge="1" parent="1">
          <mxGeometry width="50" height="50" relative="1" as="geometry">
            <mxPoint x="560" y="180" as="sourcePoint" />
            <mxPoint x="560" y="220" as="targetPoint" />
          </mxGeometry>
        </mxCell>
        <mxCell id="gg68wfgk_ePBJ8B2NXHD-41" value="" style="endArrow=classic;html=1;" edge="1" parent="1">
          <mxGeometry width="50" height="50" relative="1" as="geometry">
            <mxPoint x="160" y="180" as="sourcePoint" />
            <mxPoint x="160" y="220" as="targetPoint" />
          </mxGeometry>
        </mxCell>
        <mxCell id="gg68wfgk_ePBJ8B2NXHD-42" value="" style="endArrow=classic;html=1;" edge="1" parent="1">
          <mxGeometry width="50" height="50" relative="1" as="geometry">
            <mxPoint x="710" y="775" as="sourcePoint" />
            <mxPoint x="710" y="820" as="targetPoint" />
          </mxGeometry>
        </mxCell>
        <mxCell id="gg68wfgk_ePBJ8B2NXHD-43" value="Contact Biker" style="rounded=0;whiteSpace=wrap;html=1;" vertex="1" parent="1">
          <mxGeometry x="650" y="820" width="120" height="30" as="geometry" />
        </mxCell>
        <mxCell id="gg68wfgk_ePBJ8B2NXHD-62" value="Biker Available?" style="rhombus;whiteSpace=wrap;html=1;" vertex="1" parent="1">
          <mxGeometry x="660" y="880" width="100" height="70" as="geometry" />
        </mxCell>
        <mxCell id="gg68wfgk_ePBJ8B2NXHD-63" value="" style="endArrow=classic;html=1;" edge="1" parent="1">
          <mxGeometry width="50" height="50" relative="1" as="geometry">
            <mxPoint x="710" y="850" as="sourcePoint" />
            <mxPoint x="710" y="880" as="targetPoint" />
          </mxGeometry>
        </mxCell>
        <mxCell id="gg68wfgk_ePBJ8B2NXHD-64" value="NO" style="ellipse;whiteSpace=wrap;html=1;aspect=fixed;" vertex="1" parent="1">
          <mxGeometry x="560" y="895" width="40" height="40" as="geometry" />
        </mxCell>
        <mxCell id="gg68wfgk_ePBJ8B2NXHD-65" value="" style="endArrow=classic;html=1;" edge="1" parent="1">
          <mxGeometry width="50" height="50" relative="1" as="geometry">
            <mxPoint x="660" y="914.5" as="sourcePoint" />
            <mxPoint x="600" y="914.5" as="targetPoint" />
          </mxGeometry>
        </mxCell>
        <mxCell id="gg68wfgk_ePBJ8B2NXHD-66" value="YES" style="ellipse;whiteSpace=wrap;html=1;aspect=fixed;" vertex="1" parent="1">
          <mxGeometry x="800" y="890" width="40" height="40" as="geometry" />
        </mxCell>
        <mxCell id="gg68wfgk_ePBJ8B2NXHD-68" value="" style="endArrow=classic;html=1;" edge="1" parent="1">
          <mxGeometry width="50" height="50" relative="1" as="geometry">
            <mxPoint x="760" y="915" as="sourcePoint" />
            <mxPoint x="800" y="914.5" as="targetPoint" />
            <Array as="points">
              <mxPoint x="790" y="914.5" />
            </Array>
          </mxGeometry>
        </mxCell>
        <mxCell id="gg68wfgk_ePBJ8B2NXHD-71" value="" style="endArrow=classic;html=1;" edge="1" parent="1">
          <mxGeometry width="50" height="50" relative="1" as="geometry">
            <mxPoint x="770" y="940" as="sourcePoint" />
            <mxPoint x="770" y="960" as="targetPoint" />
          </mxGeometry>
        </mxCell>
        <mxCell id="gg68wfgk_ePBJ8B2NXHD-73" value="" style="endArrow=classic;html=1;" edge="1" parent="1">
          <mxGeometry width="50" height="50" relative="1" as="geometry">
            <mxPoint x="759" y="990" as="sourcePoint" />
            <mxPoint x="759" y="1000" as="targetPoint" />
          </mxGeometry>
        </mxCell>
        <mxCell id="gg68wfgk_ePBJ8B2NXHD-76" value="" style="endArrow=classic;html=1;" edge="1" parent="1">
          <mxGeometry width="50" height="50" relative="1" as="geometry">
            <mxPoint x="759" y="1040" as="sourcePoint" />
            <mxPoint x="759" y="1050" as="targetPoint" />
          </mxGeometry>
        </mxCell>
        <mxCell id="gg68wfgk_ePBJ8B2NXHD-77" value="" style="endArrow=none;html=1;" edge="1" parent="1">
          <mxGeometry width="50" height="50" relative="1" as="geometry">
            <mxPoint x="770" y="940" as="sourcePoint" />
            <mxPoint x="820" y="940" as="targetPoint" />
          </mxGeometry>
        </mxCell>
        <mxCell id="gg68wfgk_ePBJ8B2NXHD-78" value="" style="endArrow=none;html=1;" edge="1" parent="1">
          <mxGeometry width="50" height="50" relative="1" as="geometry">
            <mxPoint x="819.5" y="940" as="sourcePoint" />
            <mxPoint x="820" y="930" as="targetPoint" />
            <Array as="points">
              <mxPoint x="819.5" y="940" />
            </Array>
          </mxGeometry>
        </mxCell>
        <mxCell id="gg68wfgk_ePBJ8B2NXHD-79" value="Why Unavailable?" style="rhombus;whiteSpace=wrap;html=1;" vertex="1" parent="1">
          <mxGeometry x="370" y="880" width="120" height="70" as="geometry" />
        </mxCell>
        <mxCell id="gg68wfgk_ePBJ8B2NXHD-81" value="" style="endArrow=none;html=1;" edge="1" parent="1">
          <mxGeometry width="50" height="50" relative="1" as="geometry">
            <mxPoint x="250" y="914.5" as="sourcePoint" />
            <mxPoint x="370" y="914.5" as="targetPoint" />
          </mxGeometry>
        </mxCell>
        <mxCell id="gg68wfgk_ePBJ8B2NXHD-82" value="" style="endArrow=classic;html=1;" edge="1" parent="1">
          <mxGeometry width="50" height="50" relative="1" as="geometry">
            <mxPoint x="250" y="910" as="sourcePoint" />
            <mxPoint x="250" y="970" as="targetPoint" />
          </mxGeometry>
        </mxCell>
        <mxCell id="gg68wfgk_ePBJ8B2NXHD-84" value="" style="endArrow=none;html=1;entryX=0;entryY=0.5;entryDx=0;entryDy=0;" edge="1" parent="1" target="gg68wfgk_ePBJ8B2NXHD-64">
          <mxGeometry width="50" height="50" relative="1" as="geometry">
            <mxPoint x="490" y="914.5" as="sourcePoint" />
            <mxPoint x="550" y="914.5" as="targetPoint" />
          </mxGeometry>
        </mxCell>
        <mxCell id="gg68wfgk_ePBJ8B2NXHD-85" value="" style="endArrow=none;html=1;" edge="1" parent="1">
          <mxGeometry width="50" height="50" relative="1" as="geometry">
            <mxPoint x="70" y="970" as="sourcePoint" />
            <mxPoint x="320" y="970" as="targetPoint" />
          </mxGeometry>
        </mxCell>
        <mxCell id="gg68wfgk_ePBJ8B2NXHD-86" value="Find Alternate Delivery Man" style="rounded=0;whiteSpace=wrap;html=1;" vertex="1" parent="1">
          <mxGeometry x="140" y="1000" width="120" height="30" as="geometry" />
        </mxCell>
        <mxCell id="gg68wfgk_ePBJ8B2NXHD-87" value="Find Alternate Delivery Man" style="rounded=0;whiteSpace=wrap;html=1;" vertex="1" parent="1">
          <mxGeometry x="280" y="1000" width="120" height="30" as="geometry" />
        </mxCell>
        <mxCell id="gg68wfgk_ePBJ8B2NXHD-89" value="" style="endArrow=classic;html=1;" edge="1" parent="1">
          <mxGeometry width="50" height="50" relative="1" as="geometry">
            <mxPoint x="190" y="970" as="sourcePoint" />
            <mxPoint x="190" y="1000" as="targetPoint" />
          </mxGeometry>
        </mxCell>
        <mxCell id="gg68wfgk_ePBJ8B2NXHD-90" value="" style="endArrow=classic;html=1;" edge="1" parent="1">
          <mxGeometry width="50" height="50" relative="1" as="geometry">
            <mxPoint x="320" y="970" as="sourcePoint" />
            <mxPoint x="320" y="1000" as="targetPoint" />
          </mxGeometry>
        </mxCell>
        <mxCell id="gg68wfgk_ePBJ8B2NXHD-91" value="" style="endArrow=classic;html=1;" edge="1" parent="1">
          <mxGeometry width="50" height="50" relative="1" as="geometry">
            <mxPoint x="70" y="970" as="sourcePoint" />
            <mxPoint x="70" y="1000" as="targetPoint" />
          </mxGeometry>
        </mxCell>
        <mxCell id="gg68wfgk_ePBJ8B2NXHD-93" value="" style="endArrow=none;html=1;entryX=0;entryY=0.5;entryDx=0;entryDy=0;" edge="1" parent="1" target="9tz1jNqClA59w6YrsnFZ-79">
          <mxGeometry width="50" height="50" relative="1" as="geometry">
            <mxPoint x="240" y="744.5" as="sourcePoint" />
            <mxPoint x="390" y="744.5" as="targetPoint" />
          </mxGeometry>
        </mxCell>
        <mxCell id="gg68wfgk_ePBJ8B2NXHD-96" style="edgeStyle=orthogonalEdgeStyle;rounded=0;orthogonalLoop=1;jettySize=auto;html=1;exitX=0.5;exitY=1;exitDx=0;exitDy=0;" edge="1" parent="1">
          <mxGeometry relative="1" as="geometry">
            <mxPoint x="165" y="640" as="sourcePoint" />
            <mxPoint x="165" y="640" as="targetPoint" />
          </mxGeometry>
        </mxCell>
        <mxCell id="gg68wfgk_ePBJ8B2NXHD-97" value="" style="endArrow=none;html=1;" edge="1" parent="1">
          <mxGeometry width="50" height="50" relative="1" as="geometry">
            <mxPoint x="240" y="800" as="sourcePoint" />
            <mxPoint x="240" y="700" as="targetPoint" />
          </mxGeometry>
        </mxCell>
        <mxCell id="gg68wfgk_ePBJ8B2NXHD-98" value="" style="endArrow=none;html=1;" edge="1" parent="1">
          <mxGeometry width="50" height="50" relative="1" as="geometry">
            <mxPoint x="130" y="700" as="sourcePoint" />
            <mxPoint x="240" y="700" as="targetPoint" />
          </mxGeometry>
        </mxCell>
        <mxCell id="gg68wfgk_ePBJ8B2NXHD-99" value="" style="endArrow=none;html=1;" edge="1" parent="1">
          <mxGeometry width="50" height="50" relative="1" as="geometry">
            <mxPoint x="130" y="800" as="sourcePoint" />
            <mxPoint x="240" y="800" as="targetPoint" />
          </mxGeometry>
        </mxCell>
        <mxCell id="gg68wfgk_ePBJ8B2NXHD-100" value="Out of Production" style="rounded=0;whiteSpace=wrap;html=1;" vertex="1" parent="1">
          <mxGeometry x="10" y="690" width="120" height="40" as="geometry" />
        </mxCell>
        <mxCell id="gg68wfgk_ePBJ8B2NXHD-101" value="Restock" style="rounded=0;whiteSpace=wrap;html=1;" vertex="1" parent="1">
          <mxGeometry x="10" y="855" width="120" height="40" as="geometry" />
        </mxCell>
        <mxCell id="gg68wfgk_ePBJ8B2NXHD-102" value="" style="endArrow=none;html=1;" edge="1" parent="1">
          <mxGeometry width="50" height="50" relative="1" as="geometry">
            <mxPoint x="130" y="874.5" as="sourcePoint" />
            <mxPoint x="240" y="874.5" as="targetPoint" />
          </mxGeometry>
        </mxCell>
        <mxCell id="gg68wfgk_ePBJ8B2NXHD-103" value="" style="endArrow=none;html=1;" edge="1" parent="1">
          <mxGeometry width="50" height="50" relative="1" as="geometry">
            <mxPoint x="240" y="880" as="sourcePoint" />
            <mxPoint x="240" y="830" as="targetPoint" />
          </mxGeometry>
        </mxCell>
        <mxCell id="gg68wfgk_ePBJ8B2NXHD-104" value="" style="endArrow=none;html=1;" edge="1" parent="1">
          <mxGeometry width="50" height="50" relative="1" as="geometry">
            <mxPoint x="240" y="830" as="sourcePoint" />
            <mxPoint x="650" y="830" as="targetPoint" />
          </mxGeometry>
        </mxCell>
        <mxCell id="gg68wfgk_ePBJ8B2NXHD-105" value="" style="endArrow=classic;html=1;exitX=0.5;exitY=1;exitDx=0;exitDy=0;" edge="1" parent="1" source="9tz1jNqClA59w6YrsnFZ-49">
          <mxGeometry width="50" height="50" relative="1" as="geometry">
            <mxPoint x="70" y="825" as="sourcePoint" />
            <mxPoint x="69.5" y="855" as="targetPoint" />
          </mxGeometry>
        </mxCell>
      </root>
    </mxGraphModel>
  </diagram>
</mxfile>
